<?xml version="1.0" encoding="UTF-8"?>
<svg width="26px" height="24px" viewBox="0 0 26 24" version="1.1" xmlns="http://www.w3.org/2000/svg" xmlns:xlink="http://www.w3.org/1999/xlink">
    <!-- Generator: Sketch 52.5 (67469) - http://www.bohemiancoding.com/sketch -->
    <title>apple_TV</title>
    <desc>Created with Sketch.</desc>
    <g id="Page-1" stroke="none" stroke-width="1" fill="none" fill-rule="evenodd" stroke-linecap="round">
        <g id="apple_TV" transform="translate(1.000000, 1.000000)" stroke="#4C4C4C" stroke-width="1.1">
            <path d="M10.4,17.3 L2.7,17.3 C1.4,17.3 0.4,16.3 0.4,15 L0.4,7.3 C0.4,6 1.4,5 2.7,5 L10.4,5 C11.7,5 12.7,6 12.7,7.3 L12.7,15 C12.7,16.3 11.7,17.3 10.4,17.3 Z" id="Path"></path>
            <path d="M21.4,21.8 L17.8,21.8 C16.6,21.8 15.5,20.8 15.5,19.5 L15.5,2.4 C15.5,1.2 16.5,0.1 17.8,0.1 L21.4,0.1 C22.6,0.1 23.7,1.1 23.7,2.4 L23.7,19.5 C23.6,20.8 22.6,21.8 21.4,21.8 Z" id="Path"></path>
            <path d="M15.5,8.4 L23.6,8.4" id="Path"></path>
            <circle id="Oval" cx="19.5" cy="5.4" r="1"></circle>
            <path d="M18,11.1 L21.1,11.1" id="Path"></path>
            <path d="M18,13.4 L21.1,13.4" id="Path"></path>
        </g>
    </g>
</svg>